<?xml version="1.0" encoding="UTF-8"?>
<svg id="Capa_1" data-name="Capa 1" xmlns="http://www.w3.org/2000/svg" viewBox="0 0 26.66 57.44">
  <defs>
    <style>
      .cls-1 {
        fill: #b5814a;
      }

      .cls-2 {
        fill: #b64d84;
        fill-rule: evenodd;
      }
    </style>
  </defs>
  <path class="cls-1" d="M17.2,21.79c1.12.96,2.5,2.55,2.72,4.69.4-5.4-.28-10.69-1.97-15.72,2.65,4.52,3.84,9.92,3.84,15.43.99-1.66,1.85-3.88,1.92-6.64.1-3.87-1.17-6.45-3.03-8.7-1.17-1.41-5.06-4.51-4.79-10.01-1.86,1.63-4.48,4.93-4.52,9.85-.03,2.82.84,4.93,1.39,6.05,1.02,2.05,2.48,3.38,4.45,5.07Z"/>
  <path class="cls-2" d="M21.98,33.13C15.36,24.62-.09,16.38,8.3,0-2.01,9.33-1.22,15.93,2.68,21.98c-.1-.05,9.26,12.62,11.65,18.68,1.12,2.84,2.5,6.18,1.9,9.46-.95,3.35-3.92,5.8-9.53,5.93,18.66,6.27,25.35-9.98,15.29-22.91Z"/>
</svg>